<mxfile host="app.diagrams.net" modified="2022-07-14T16:25:31.984Z" agent="5.0 (Macintosh; Intel Mac OS X 10_15_7) AppleWebKit/537.36 (KHTML, like Gecko) Chrome/103.0.0.0 Safari/537.36" etag="Wxb_qRkosh0v0GbEEboy" version="20.1.1" type="github">
  <diagram id="frotmppnRAkI8_DNOgKx" name="Page-1">
    <mxGraphModel dx="1234" dy="744" grid="1" gridSize="10" guides="1" tooltips="1" connect="1" arrows="1" fold="1" page="1" pageScale="1" pageWidth="850" pageHeight="1100" math="0" shadow="0">
      <root>
        <mxCell id="0" />
        <mxCell id="1" parent="0" />
        <mxCell id="CW7KyH0B0hUuFeBV_yyw-3" value="&lt;h1&gt;&lt;span style=&quot;background-color: initial;&quot;&gt;Verify User&lt;br&gt;&lt;/span&gt;&lt;span style=&quot;font-size: 12px; font-weight: 400;&quot;&gt;Be able to verify that an address and Twitter account are associated without storing linkable information. Be able to retrieve username/userID from this address pairing so that the app using this sign-in flow can indicate the user is a &#39;real user&#39;, has a real Twitter + ETH address without revealing what address or Twitter. Store all of these hashes in a public repository while still ensuring anonyminity.&lt;/span&gt;&lt;/h1&gt;" style="text;html=1;strokeColor=none;fillColor=none;spacing=5;spacingTop=-20;whiteSpace=wrap;overflow=hidden;rounded=0;" parent="1" vertex="1">
          <mxGeometry x="20" y="20" width="810" height="120" as="geometry" />
        </mxCell>
        <mxCell id="CW7KyH0B0hUuFeBV_yyw-6" value="&lt;b&gt;&lt;font style=&quot;font-size: 21px;&quot;&gt;User Flow&lt;/font&gt;&lt;/b&gt;" style="text;html=1;strokeColor=none;fillColor=none;align=center;verticalAlign=middle;whiteSpace=wrap;rounded=0;" parent="1" vertex="1">
          <mxGeometry x="20" y="150" width="160" height="30" as="geometry" />
        </mxCell>
        <mxCell id="CW7KyH0B0hUuFeBV_yyw-10" style="edgeStyle=orthogonalEdgeStyle;rounded=0;orthogonalLoop=1;jettySize=auto;html=1;exitX=0.5;exitY=1;exitDx=0;exitDy=0;fontSize=21;" parent="1" source="CW7KyH0B0hUuFeBV_yyw-7" target="CW7KyH0B0hUuFeBV_yyw-8" edge="1">
          <mxGeometry relative="1" as="geometry" />
        </mxCell>
        <mxCell id="CW7KyH0B0hUuFeBV_yyw-11" style="edgeStyle=orthogonalEdgeStyle;rounded=0;orthogonalLoop=1;jettySize=auto;html=1;fontSize=21;" parent="1" source="CW7KyH0B0hUuFeBV_yyw-7" target="CW7KyH0B0hUuFeBV_yyw-9" edge="1">
          <mxGeometry relative="1" as="geometry" />
        </mxCell>
        <mxCell id="CW7KyH0B0hUuFeBV_yyw-7" value="&lt;font style=&quot;font-size: 15px;&quot;&gt;User opens app + connects wallet&lt;/font&gt;" style="rounded=0;whiteSpace=wrap;html=1;fontSize=21;" parent="1" vertex="1">
          <mxGeometry x="81.5" y="1420" width="130" height="60" as="geometry" />
        </mxCell>
        <mxCell id="CW7KyH0B0hUuFeBV_yyw-24" style="edgeStyle=orthogonalEdgeStyle;rounded=0;orthogonalLoop=1;jettySize=auto;html=1;entryX=0.439;entryY=0.023;entryDx=0;entryDy=0;entryPerimeter=0;fontSize=15;" parent="1" source="CW7KyH0B0hUuFeBV_yyw-8" target="CW7KyH0B0hUuFeBV_yyw-13" edge="1">
          <mxGeometry relative="1" as="geometry" />
        </mxCell>
        <mxCell id="CW7KyH0B0hUuFeBV_yyw-8" value="&lt;font style=&quot;font-size: 15px;&quot;&gt;New user&lt;/font&gt;" style="rounded=0;whiteSpace=wrap;html=1;fontSize=21;" parent="1" vertex="1">
          <mxGeometry x="89" y="1512" width="115" height="30" as="geometry" />
        </mxCell>
        <mxCell id="CW7KyH0B0hUuFeBV_yyw-28" style="edgeStyle=orthogonalEdgeStyle;rounded=0;orthogonalLoop=1;jettySize=auto;html=1;exitX=0.5;exitY=1;exitDx=0;exitDy=0;entryX=0.5;entryY=0;entryDx=0;entryDy=0;fontSize=15;" parent="1" source="CW7KyH0B0hUuFeBV_yyw-9" target="CW7KyH0B0hUuFeBV_yyw-17" edge="1">
          <mxGeometry relative="1" as="geometry" />
        </mxCell>
        <mxCell id="CW7KyH0B0hUuFeBV_yyw-9" value="&lt;font style=&quot;font-size: 15px;&quot;&gt;Returning User&lt;/font&gt;" style="rounded=0;whiteSpace=wrap;html=1;fontSize=21;" parent="1" vertex="1">
          <mxGeometry x="311.5" y="1502" width="180" height="40" as="geometry" />
        </mxCell>
        <mxCell id="CW7KyH0B0hUuFeBV_yyw-25" style="edgeStyle=orthogonalEdgeStyle;rounded=0;orthogonalLoop=1;jettySize=auto;html=1;entryX=0.5;entryY=0;entryDx=0;entryDy=0;fontSize=15;" parent="1" source="CW7KyH0B0hUuFeBV_yyw-13" target="CW7KyH0B0hUuFeBV_yyw-14" edge="1">
          <mxGeometry relative="1" as="geometry" />
        </mxCell>
        <mxCell id="CW7KyH0B0hUuFeBV_yyw-13" value="&lt;font style=&quot;font-size: 15px;&quot;&gt;Provide twitter handle + display name&lt;/font&gt;" style="rounded=0;whiteSpace=wrap;html=1;fontSize=21;" parent="1" vertex="1">
          <mxGeometry x="80.25" y="1572" width="150" height="60" as="geometry" />
        </mxCell>
        <mxCell id="CW7KyH0B0hUuFeBV_yyw-26" style="edgeStyle=orthogonalEdgeStyle;rounded=0;orthogonalLoop=1;jettySize=auto;html=1;entryX=0.522;entryY=-0.009;entryDx=0;entryDy=0;entryPerimeter=0;fontSize=15;" parent="1" source="CW7KyH0B0hUuFeBV_yyw-14" target="CW7KyH0B0hUuFeBV_yyw-22" edge="1">
          <mxGeometry relative="1" as="geometry" />
        </mxCell>
        <mxCell id="CW7KyH0B0hUuFeBV_yyw-14" value="&lt;font style=&quot;font-size: 11px;&quot;&gt;Sign message - Hello, @userID (twitter API get id)...&lt;/font&gt;" style="rounded=0;whiteSpace=wrap;html=1;fontSize=21;" parent="1" vertex="1">
          <mxGeometry x="81.5" y="1652" width="147.5" height="60" as="geometry" />
        </mxCell>
        <mxCell id="CW7KyH0B0hUuFeBV_yyw-16" value="&lt;span style=&quot;font-size: 15px;&quot;&gt;after verifying that the right account tweeted it with twitter API (verificationHash)&lt;br&gt;&lt;br&gt;save only&lt;br&gt;sha256(signed message) -&amp;gt; in-app username&lt;br&gt;&lt;/span&gt;" style="rounded=0;whiteSpace=wrap;html=1;fontSize=11;" parent="1" vertex="1">
          <mxGeometry x="73.5" y="1862" width="198" height="200" as="geometry" />
        </mxCell>
        <mxCell id="CW7KyH0B0hUuFeBV_yyw-29" style="edgeStyle=orthogonalEdgeStyle;rounded=0;orthogonalLoop=1;jettySize=auto;html=1;entryX=0.5;entryY=0;entryDx=0;entryDy=0;fontSize=15;" parent="1" source="CW7KyH0B0hUuFeBV_yyw-17" target="CW7KyH0B0hUuFeBV_yyw-21" edge="1">
          <mxGeometry relative="1" as="geometry" />
        </mxCell>
        <mxCell id="CW7KyH0B0hUuFeBV_yyw-17" value="&lt;font style=&quot;font-size: 15px;&quot;&gt;Provide twitter handle&lt;/font&gt;" style="rounded=0;whiteSpace=wrap;html=1;fontSize=21;" parent="1" vertex="1">
          <mxGeometry x="311.5" y="1572" width="180" height="60" as="geometry" />
        </mxCell>
        <mxCell id="CW7KyH0B0hUuFeBV_yyw-31" style="edgeStyle=orthogonalEdgeStyle;rounded=0;orthogonalLoop=1;jettySize=auto;html=1;entryX=0.5;entryY=0;entryDx=0;entryDy=0;fontSize=15;" parent="1" source="CW7KyH0B0hUuFeBV_yyw-18" target="CW7KyH0B0hUuFeBV_yyw-19" edge="1">
          <mxGeometry relative="1" as="geometry" />
        </mxCell>
        <mxCell id="CW7KyH0B0hUuFeBV_yyw-18" value="&lt;font style=&quot;font-size: 15px;&quot;&gt;find that we&#39;ve previously verified this user using hash of the signature&lt;/font&gt;" style="rounded=0;whiteSpace=wrap;html=1;fontSize=21;" parent="1" vertex="1">
          <mxGeometry x="311.5" y="1712" width="180" height="100" as="geometry" />
        </mxCell>
        <mxCell id="CW7KyH0B0hUuFeBV_yyw-19" value="&lt;font style=&quot;font-size: 15px;&quot;&gt;username/userID is associated with this pair that can be used to identify user on the app&lt;/font&gt;" style="rounded=0;whiteSpace=wrap;html=1;fontSize=21;" parent="1" vertex="1">
          <mxGeometry x="311.5" y="1852" width="180" height="120" as="geometry" />
        </mxCell>
        <mxCell id="CW7KyH0B0hUuFeBV_yyw-20" value="Store:&amp;nbsp;&lt;br&gt;&lt;br&gt;Hash(signed message) -&amp;gt; username" style="rounded=1;whiteSpace=wrap;html=1;fontSize=15;strokeWidth=0;" parent="1" vertex="1">
          <mxGeometry x="560" y="150" width="260" height="110" as="geometry" />
        </mxCell>
        <mxCell id="CW7KyH0B0hUuFeBV_yyw-30" style="edgeStyle=orthogonalEdgeStyle;rounded=0;orthogonalLoop=1;jettySize=auto;html=1;entryX=0.5;entryY=0;entryDx=0;entryDy=0;fontSize=15;" parent="1" source="CW7KyH0B0hUuFeBV_yyw-21" target="CW7KyH0B0hUuFeBV_yyw-18" edge="1">
          <mxGeometry relative="1" as="geometry" />
        </mxCell>
        <mxCell id="CW7KyH0B0hUuFeBV_yyw-21" value="&lt;span style=&quot;font-size: 11px;&quot;&gt;Sign message - Hello, @userID...&lt;/span&gt;" style="rounded=0;whiteSpace=wrap;html=1;fontSize=21;" parent="1" vertex="1">
          <mxGeometry x="311.5" y="1652" width="180" height="30" as="geometry" />
        </mxCell>
        <mxCell id="CW7KyH0B0hUuFeBV_yyw-27" style="edgeStyle=orthogonalEdgeStyle;rounded=0;orthogonalLoop=1;jettySize=auto;html=1;entryX=0.39;entryY=0;entryDx=0;entryDy=0;entryPerimeter=0;fontSize=15;" parent="1" source="CW7KyH0B0hUuFeBV_yyw-22" target="CW7KyH0B0hUuFeBV_yyw-16" edge="1">
          <mxGeometry relative="1" as="geometry" />
        </mxCell>
        <mxCell id="CW7KyH0B0hUuFeBV_yyw-22" value="&lt;font style=&quot;font-size: 11px;&quot;&gt;generate some sha256(sig) to post on twitter&lt;/font&gt;" style="rounded=0;whiteSpace=wrap;html=1;fontSize=21;" parent="1" vertex="1">
          <mxGeometry x="74" y="1742" width="156.5" height="90" as="geometry" />
        </mxCell>
        <mxCell id="CW7KyH0B0hUuFeBV_yyw-32" value="Notes:&lt;br&gt;Using Twitter account&#39;s userID over handle because users may change their handle over time but the id remains the same. ID can be retrieved via Twitter API" style="whiteSpace=wrap;html=1;fontSize=11;strokeWidth=0;" parent="1" vertex="1">
          <mxGeometry x="560" y="270" width="260" height="130" as="geometry" />
        </mxCell>
        <mxCell id="iwYcbWCkDC_1uITeM5Qb-36" value="" style="edgeStyle=orthogonalEdgeStyle;rounded=0;orthogonalLoop=1;jettySize=auto;html=1;" edge="1" parent="1" source="iwYcbWCkDC_1uITeM5Qb-11" target="iwYcbWCkDC_1uITeM5Qb-31">
          <mxGeometry relative="1" as="geometry" />
        </mxCell>
        <mxCell id="iwYcbWCkDC_1uITeM5Qb-11" value="&lt;span style=&quot;font-size: 15px;&quot;&gt;after verifying that the right account tweeted it with twitter API (verificationHash)&lt;br&gt;&lt;br&gt;&lt;/span&gt;" style="rounded=0;whiteSpace=wrap;html=1;fontSize=11;" vertex="1" parent="1">
          <mxGeometry x="335" y="850" width="195" height="100" as="geometry" />
        </mxCell>
        <mxCell id="iwYcbWCkDC_1uITeM5Qb-24" style="edgeStyle=orthogonalEdgeStyle;rounded=0;orthogonalLoop=1;jettySize=auto;html=1;entryX=0.5;entryY=0;entryDx=0;entryDy=0;" edge="1" parent="1" source="iwYcbWCkDC_1uITeM5Qb-13" target="iwYcbWCkDC_1uITeM5Qb-18">
          <mxGeometry relative="1" as="geometry" />
        </mxCell>
        <mxCell id="iwYcbWCkDC_1uITeM5Qb-13" value="&lt;font style=&quot;font-size: 15px;&quot;&gt;Provide twitter handle&lt;/font&gt;" style="rounded=0;whiteSpace=wrap;html=1;fontSize=21;" vertex="1" parent="1">
          <mxGeometry x="170" y="290" width="180" height="60" as="geometry" />
        </mxCell>
        <mxCell id="iwYcbWCkDC_1uITeM5Qb-29" style="edgeStyle=orthogonalEdgeStyle;rounded=0;orthogonalLoop=1;jettySize=auto;html=1;" edge="1" parent="1" source="iwYcbWCkDC_1uITeM5Qb-15" target="iwYcbWCkDC_1uITeM5Qb-28">
          <mxGeometry relative="1" as="geometry" />
        </mxCell>
        <mxCell id="iwYcbWCkDC_1uITeM5Qb-30" style="edgeStyle=orthogonalEdgeStyle;rounded=0;orthogonalLoop=1;jettySize=auto;html=1;" edge="1" parent="1" source="iwYcbWCkDC_1uITeM5Qb-15" target="iwYcbWCkDC_1uITeM5Qb-26">
          <mxGeometry relative="1" as="geometry" />
        </mxCell>
        <mxCell id="iwYcbWCkDC_1uITeM5Qb-15" value="&lt;font style=&quot;font-size: 15px;&quot;&gt;find that we&#39;ve previously verified this user using hash of the signature&lt;/font&gt;" style="rounded=0;whiteSpace=wrap;html=1;fontSize=21;" vertex="1" parent="1">
          <mxGeometry x="170" y="470" width="180" height="80" as="geometry" />
        </mxCell>
        <mxCell id="iwYcbWCkDC_1uITeM5Qb-16" value="&lt;font style=&quot;font-size: 15px;&quot;&gt;username/userID is already associated with this pair that can be used to identify user on the app&lt;/font&gt;" style="rounded=0;whiteSpace=wrap;html=1;fontSize=21;" vertex="1" parent="1">
          <mxGeometry x="20" y="760" width="180" height="120" as="geometry" />
        </mxCell>
        <mxCell id="iwYcbWCkDC_1uITeM5Qb-25" style="edgeStyle=orthogonalEdgeStyle;rounded=0;orthogonalLoop=1;jettySize=auto;html=1;entryX=0.5;entryY=0;entryDx=0;entryDy=0;" edge="1" parent="1" source="iwYcbWCkDC_1uITeM5Qb-18" target="iwYcbWCkDC_1uITeM5Qb-15">
          <mxGeometry relative="1" as="geometry" />
        </mxCell>
        <mxCell id="iwYcbWCkDC_1uITeM5Qb-18" value="&lt;span style=&quot;font-size: 11px;&quot;&gt;Sign message - Hello, @userID...&lt;/span&gt;" style="rounded=0;whiteSpace=wrap;html=1;fontSize=21;" vertex="1" parent="1">
          <mxGeometry x="170" y="400" width="180" height="30" as="geometry" />
        </mxCell>
        <mxCell id="iwYcbWCkDC_1uITeM5Qb-35" value="" style="edgeStyle=orthogonalEdgeStyle;rounded=0;orthogonalLoop=1;jettySize=auto;html=1;" edge="1" parent="1" source="iwYcbWCkDC_1uITeM5Qb-20" target="iwYcbWCkDC_1uITeM5Qb-11">
          <mxGeometry relative="1" as="geometry" />
        </mxCell>
        <mxCell id="iwYcbWCkDC_1uITeM5Qb-20" value="&lt;font style=&quot;font-size: 11px;&quot;&gt;generate the sha256(sig) to post on twitter&lt;/font&gt;" style="rounded=0;whiteSpace=wrap;html=1;fontSize=21;" vertex="1" parent="1">
          <mxGeometry x="335" y="720" width="156.5" height="90" as="geometry" />
        </mxCell>
        <mxCell id="iwYcbWCkDC_1uITeM5Qb-22" style="edgeStyle=orthogonalEdgeStyle;rounded=0;orthogonalLoop=1;jettySize=auto;html=1;entryX=0.476;entryY=-0.01;entryDx=0;entryDy=0;entryPerimeter=0;" edge="1" parent="1" source="iwYcbWCkDC_1uITeM5Qb-21" target="iwYcbWCkDC_1uITeM5Qb-13">
          <mxGeometry relative="1" as="geometry" />
        </mxCell>
        <mxCell id="iwYcbWCkDC_1uITeM5Qb-21" value="&lt;font style=&quot;font-size: 15px;&quot;&gt;User opens app + connects wallet&lt;/font&gt;" style="rounded=0;whiteSpace=wrap;html=1;fontSize=21;" vertex="1" parent="1">
          <mxGeometry x="190" y="200" width="130" height="50" as="geometry" />
        </mxCell>
        <mxCell id="iwYcbWCkDC_1uITeM5Qb-33" style="edgeStyle=orthogonalEdgeStyle;rounded=0;orthogonalLoop=1;jettySize=auto;html=1;" edge="1" parent="1" source="iwYcbWCkDC_1uITeM5Qb-26" target="iwYcbWCkDC_1uITeM5Qb-20">
          <mxGeometry relative="1" as="geometry" />
        </mxCell>
        <mxCell id="iwYcbWCkDC_1uITeM5Qb-26" value="No (this is a new user)" style="rounded=0;whiteSpace=wrap;html=1;" vertex="1" parent="1">
          <mxGeometry x="335" y="630" width="120" height="40" as="geometry" />
        </mxCell>
        <mxCell id="iwYcbWCkDC_1uITeM5Qb-34" value="" style="edgeStyle=orthogonalEdgeStyle;rounded=0;orthogonalLoop=1;jettySize=auto;html=1;" edge="1" parent="1" source="iwYcbWCkDC_1uITeM5Qb-28" target="iwYcbWCkDC_1uITeM5Qb-16">
          <mxGeometry relative="1" as="geometry" />
        </mxCell>
        <mxCell id="iwYcbWCkDC_1uITeM5Qb-28" value="Yes" style="rounded=0;whiteSpace=wrap;html=1;" vertex="1" parent="1">
          <mxGeometry x="60" y="630" width="120" height="60" as="geometry" />
        </mxCell>
        <mxCell id="iwYcbWCkDC_1uITeM5Qb-37" value="" style="edgeStyle=orthogonalEdgeStyle;rounded=0;orthogonalLoop=1;jettySize=auto;html=1;" edge="1" parent="1" source="iwYcbWCkDC_1uITeM5Qb-31" target="iwYcbWCkDC_1uITeM5Qb-32">
          <mxGeometry relative="1" as="geometry" />
        </mxCell>
        <mxCell id="iwYcbWCkDC_1uITeM5Qb-31" value="Ask for a display name (tell user this will be saved) - we won&#39;t save your address/ENS" style="rounded=0;whiteSpace=wrap;html=1;" vertex="1" parent="1">
          <mxGeometry x="315" y="1010" width="235" height="60" as="geometry" />
        </mxCell>
        <mxCell id="iwYcbWCkDC_1uITeM5Qb-32" value="&lt;meta charset=&quot;utf-8&quot;&gt;&lt;span style=&quot;color: rgb(0, 0, 0); font-family: Helvetica; font-size: 15px; font-style: normal; font-variant-ligatures: normal; font-variant-caps: normal; font-weight: 400; letter-spacing: normal; orphans: 2; text-align: center; text-indent: 0px; text-transform: none; widows: 2; word-spacing: 0px; -webkit-text-stroke-width: 0px; background-color: rgb(248, 249, 250); text-decoration-thickness: initial; text-decoration-style: initial; text-decoration-color: initial; float: none; display: inline !important;&quot;&gt;save only&lt;/span&gt;&lt;br style=&quot;color: rgb(0, 0, 0); font-family: Helvetica; font-size: 15px; font-style: normal; font-variant-ligatures: normal; font-variant-caps: normal; font-weight: 400; letter-spacing: normal; orphans: 2; text-align: center; text-indent: 0px; text-transform: none; widows: 2; word-spacing: 0px; -webkit-text-stroke-width: 0px; background-color: rgb(248, 249, 250); text-decoration-thickness: initial; text-decoration-style: initial; text-decoration-color: initial;&quot;&gt;&lt;span style=&quot;color: rgb(0, 0, 0); font-family: Helvetica; font-size: 15px; font-style: normal; font-variant-ligatures: normal; font-variant-caps: normal; font-weight: 400; letter-spacing: normal; orphans: 2; text-align: center; text-indent: 0px; text-transform: none; widows: 2; word-spacing: 0px; -webkit-text-stroke-width: 0px; background-color: rgb(248, 249, 250); text-decoration-thickness: initial; text-decoration-style: initial; text-decoration-color: initial; float: none; display: inline !important;&quot;&gt;sha256(signed message) -&amp;gt; in-app username&lt;/span&gt;" style="rounded=0;whiteSpace=wrap;html=1;" vertex="1" parent="1">
          <mxGeometry x="317.5" y="1120" width="230" height="110" as="geometry" />
        </mxCell>
        <mxCell id="iwYcbWCkDC_1uITeM5Qb-38" value="Explain why we aren&#39;t saving their address/ENS.&lt;br&gt;&lt;br&gt;we want to make this anon friendly&amp;nbsp;" style="ellipse;whiteSpace=wrap;html=1;" vertex="1" parent="1">
          <mxGeometry x="610" y="760" width="170" height="220" as="geometry" />
        </mxCell>
        <mxCell id="iwYcbWCkDC_1uITeM5Qb-40" value="let them choose if they want to be anon&lt;br&gt;&lt;br&gt;&lt;ul&gt;&lt;li&gt;prefill their ENS or twitter handle&lt;/li&gt;&lt;/ul&gt;" style="ellipse;shape=cloud;whiteSpace=wrap;html=1;" vertex="1" parent="1">
          <mxGeometry x="510" y="400" width="320" height="190" as="geometry" />
        </mxCell>
        <mxCell id="iwYcbWCkDC_1uITeM5Qb-41" value="&lt;b&gt;&lt;font style=&quot;font-size: 21px;&quot;&gt;Old flow&lt;/font&gt;&lt;/b&gt;" style="text;html=1;strokeColor=none;fillColor=none;align=center;verticalAlign=middle;whiteSpace=wrap;rounded=0;" vertex="1" parent="1">
          <mxGeometry x="44" y="1340" width="160" height="30" as="geometry" />
        </mxCell>
      </root>
    </mxGraphModel>
  </diagram>
</mxfile>
